# xmcd
#
# Track frame offsets:
#	150
#	19222
#	46807
#	69437
#	85090
#	103477
#	123597
#	142540
#	165345
#
# Disc length: 2471 seconds
#
# Revision: 1
# Processed by: cddbd v1.4PL0 Copyright (c) Steve Scherf et al.
# Submitted via: audiograbber 1.81.02
#
DISCID=6c09a509
DTITLE=Poonanny - That Baby Ain't Black Enough
DYEAR=2001
DGENRE=Blues
TTITLE0=Hole in Your Drawers
TTITLE1=Hair on Her Legs (That Long)
TTITLE2=That Baby Ain't Black Enough 
TTITLE3=My Baby's Gone 
TTITLE4=Drowning Man
TTITLE5=Big Head Money
TTITLE6=Don't Pour Me Another Cup
TTITLE7=Diet Soda Blues
TTITLE8=Don't Make Love to Him 
EXTD=Waldoxy Records 2831\n© 2001
EXTT0=
EXTT1=
EXTT2=
EXTT3=
EXTT4=
EXTT5=
EXTT6=
EXTT7=
EXTT8=
PLAYORDER=
